<svg width="20" height="20" viewBox="0 0 20 20" fill="none" xmlns="http://www.w3.org/2000/svg">
<g id="book-open">
<path id="Vector" d="M10 5.83333C10 4.94928 9.64881 4.10143 9.02369 3.47631C8.39857 2.85119 7.55072 2.5 6.66667 2.5H1.66667V15H7.5C8.16304 15 8.79893 15.2634 9.26777 15.7322C9.73661 16.2011 10 16.837 10 17.5M10 5.83333V17.5M10 5.83333C10 4.94928 10.3512 4.10143 10.9763 3.47631C11.6014 2.85119 12.4493 2.5 13.3333 2.5H18.3333V15H12.5C11.837 15 11.2011 15.2634 10.7322 15.7322C10.2634 16.2011 10 16.837 10 17.5" stroke="black" stroke-width="1.5" stroke-linecap="round" stroke-linejoin="round"/>
</g>
</svg>
