<svg width="23" height="23" viewBox="0 0 23 23" fill="none" xmlns="http://www.w3.org/2000/svg">
<path d="M14.125 1H8.875L6.25 4.9375H3.1C2.54305 4.9375 2.0089 5.21406 1.61508 5.70634C1.22125 6.19863 1 6.86631 1 7.5625V19.375C1 20.0712 1.22125 20.7389 1.61508 21.2312C2.0089 21.7234 2.54305 22 3.1 22H19.9C20.457 22 20.9911 21.7234 21.3849 21.2312C21.7787 20.7389 22 20.0712 22 19.375V7.5625C22 6.86631 21.7787 6.19863 21.3849 5.70634C20.9911 5.21406 20.457 4.9375 19.9 4.9375H16.75L14.125 1Z" stroke="#BEBEBE" stroke-width="2" stroke-linecap="round" stroke-linejoin="round"/>
<path d="M11.5 16.75C13.2397 16.75 14.65 14.9871 14.65 12.8125C14.65 10.6379 13.2397 8.875 11.5 8.875C9.7603 8.875 8.35 10.6379 8.35 12.8125C8.35 14.9871 9.7603 16.75 11.5 16.75Z" stroke="#BEBEBE" stroke-width="2" stroke-linecap="round" stroke-linejoin="round"/>
</svg>
