<svg width="24" height="24" viewBox="0 0 24 24" fill="none" xmlns="http://www.w3.org/2000/svg">
<path d="M4.1266 1.89106L4.38534 2.5H5.04697H22.3184C22.4956 2.5 22.6837 2.59046 22.8285 2.80114C22.9745 3.01356 23.0451 3.313 22.9689 3.62588L22.9684 3.6279L21.2458 10.7657C21.2458 10.7658 21.2457 10.7659 21.2457 10.766C20.9802 11.8596 20.1326 12.5 19.297 12.5H7.17333H5.98914L6.18745 13.6675L6.41438 15.0034L6.41437 15.0034L6.41515 15.0079C6.577 15.9352 7.34485 16.75 8.392 16.75H20.4797C20.4939 16.7679 20.5158 16.8088 20.5158 16.875C20.5158 16.9412 20.4939 16.9821 20.4797 17H8.392C7.50059 17 6.60761 16.2765 6.40695 15.0909L6.40671 15.0896L4.23922 2.39175C4.23902 2.39057 4.23883 2.38939 4.23863 2.38821C4.13918 1.7959 3.63768 1.25 2.9206 1.25H1.03611C1.0219 1.23212 1 1.19122 1 1.125C1 1.05878 1.0219 1.01788 1.03611 1H2.9206C3.38977 1 3.87874 1.30772 4.1266 1.89106ZM6.37895 21.75C6.37895 21.5716 6.41056 21.397 6.46994 21.2371C6.52931 21.0772 6.61394 20.9385 6.71433 20.8265C6.81454 20.7148 6.92752 20.6327 7.04357 20.5791C7.15922 20.5256 7.27862 20.5 7.39605 20.5C7.51348 20.5 7.63289 20.5256 7.74853 20.5791C7.86459 20.6327 7.97757 20.7148 8.07777 20.8265C8.17816 20.9385 8.26279 21.0772 8.32216 21.2371C8.38155 21.397 8.41316 21.5716 8.41316 21.75C8.41316 21.9284 8.38155 22.103 8.32216 22.2629C8.26279 22.4228 8.17816 22.5615 8.07777 22.6735C7.97757 22.7852 7.86459 22.8673 7.74853 22.9209C7.63289 22.9744 7.51348 23 7.39605 23C7.27862 23 7.15922 22.9744 7.04357 22.9209C6.92752 22.8673 6.81454 22.7852 6.71433 22.6735C6.61394 22.5615 6.52931 22.4228 6.46994 22.2629C6.41056 22.103 6.37895 21.9284 6.37895 21.75ZM19.4987 20.5C19.731 20.5 19.9791 20.602 20.1804 20.8265C20.3849 21.0547 20.5158 21.3854 20.5158 21.75C20.5158 22.1147 20.3849 22.4453 20.1804 22.6735C19.9791 22.898 19.731 23 19.4987 23C19.2664 23 19.0183 22.898 18.817 22.6735C18.6124 22.4453 18.4816 22.1147 18.4816 21.75C18.4816 21.3853 18.6124 21.0547 18.817 20.8265C19.0183 20.602 19.2664 20.5 19.4987 20.5Z" fill="white" stroke="black" stroke-width="2"/>
</svg>
