<svg width="22" height="22" viewBox="0 0 22 22" fill="none" xmlns="http://www.w3.org/2000/svg">
<path d="M20.9734 3.30602L19.3943 9.84893C19.3943 9.84903 19.3943 9.84912 19.3942 9.84922C19.1585 10.8202 18.4107 11.375 17.6889 11.375H6.57555H5.53794L4.00167 2.375H4.62638H20.4586C20.5897 2.375 20.738 2.44105 20.8575 2.61491C20.9781 2.79052 21.038 3.04074 20.9739 3.30401L20.9734 3.30602ZM7.69266 15.5C7.37451 15.5 7.05315 15.393 6.77297 15.1931C7.03994 15.3471 7.3505 15.4375 7.69266 15.4375H18.7199C18.7216 15.446 18.7228 15.4564 18.7228 15.4688C18.7228 15.4811 18.7216 15.4915 18.7199 15.5H7.69266ZM3.28779 1.21442C3.11077 1.11874 2.9052 1.0625 2.67722 1.0625H1.0029C1.00119 1.05398 1 1.04361 1 1.03125C1 1.01889 1.00119 1.00852 1.0029 1H2.67722C2.88422 1 3.09919 1.07182 3.28779 1.21442ZM5.9307 19.9375C5.9307 19.7837 5.95796 19.6335 6.0089 19.4963C6.05982 19.3592 6.13207 19.2412 6.21686 19.1466C6.30145 19.0523 6.3959 18.984 6.49156 18.9398C6.58681 18.8958 6.68436 18.875 6.77971 18.875C6.87507 18.875 6.97262 18.8958 7.06787 18.9398C7.16353 18.984 7.25798 19.0523 7.34257 19.1466C7.42735 19.2412 7.49961 19.3592 7.55053 19.4963C7.60147 19.6335 7.62873 19.7837 7.62873 19.9375C7.62873 20.0913 7.60147 20.2415 7.55053 20.3787C7.49961 20.5158 7.42735 20.6338 7.34257 20.7284C7.25798 20.8228 7.16353 20.891 7.06787 20.9352C6.97262 20.9792 6.87507 21 6.77971 21C6.68436 21 6.58681 20.9792 6.49156 20.9352C6.3959 20.891 6.30145 20.8227 6.21686 20.7284C6.13207 20.6338 6.05982 20.5158 6.0089 20.3787C5.95796 20.2415 5.9307 20.0913 5.9307 19.9375ZM17.8738 18.875C18.0615 18.875 18.2669 18.9572 18.4367 19.1466C18.6097 19.3396 18.7228 19.6226 18.7228 19.9375C18.7228 20.2524 18.6097 20.5354 18.4367 20.7284C18.2669 20.9178 18.0615 21 17.8738 21C17.6861 21 17.4807 20.9178 17.3109 20.7284C17.1379 20.5354 17.0248 20.2524 17.0248 19.9375C17.0248 19.6226 17.1379 19.3396 17.3109 19.1466C17.4807 18.9572 17.6861 18.875 17.8738 18.875Z" fill="white" stroke="black" stroke-width="2"/>
</svg>
