<svg width="22" height="22" viewBox="0 0 22 22" fill="none" xmlns="http://www.w3.org/2000/svg">
<path d="M2.32006 12.291L2.45617 11.834L2.18685 11.4406C1.44274 10.3536 1.00038 9.01592 1.00038 7.5625C1.00038 3.88458 3.80524 1 7.15062 1C10.496 1 13.3009 3.88458 13.3009 7.5625C13.3009 11.2404 10.496 14.125 7.15062 14.125C6.03101 14.125 4.98501 13.8071 4.08112 13.2477L3.53478 12.9096L3.00018 13.266C2.78532 13.4092 2.53245 13.5531 2.25745 13.684C1.99751 13.8064 1.72604 13.9112 1.45431 13.9878C1.5402 13.8731 1.63126 13.7423 1.72189 13.5962C1.94787 13.2363 2.16903 12.7979 2.32006 12.291ZM0.550395 14.125C0.551356 14.125 0.552315 14.125 0.553273 14.125C0.552316 14.125 0.551351 14.125 0.550395 14.125ZM9.28381 17.2314C13.1459 16.2463 16.1758 12.6581 16.3889 8.07941C19.0093 8.80228 20.9977 11.3399 20.9977 14.4332C20.9977 15.8915 20.555 17.2285 19.8121 18.31L19.5406 18.7053L19.6788 19.1645C19.829 19.6631 20.0487 20.1046 20.2762 20.467C20.3679 20.6149 20.4601 20.747 20.5469 20.8628C20.2755 20.7862 20.0043 20.6815 19.7446 20.5592C19.4725 20.4298 19.2225 20.2862 19.0047 20.141L18.471 19.7852L17.9251 20.122C17.0168 20.6822 15.9703 21 14.8509 21C12.4186 21 10.2762 19.4808 9.28381 17.2314ZM21.4511 21C21.4504 21 21.4497 21 21.449 21H21.4511Z" fill="white" stroke="black" stroke-width="2"/>
</svg>
