<svg width="30" height="24" viewBox="0 0 30 24" fill="none" xmlns="http://www.w3.org/2000/svg">
<path d="M2.76715 13.4411L2.96688 12.8963L2.59301 12.4525C1.57986 11.25 1.00051 9.80016 1.00051 8.25C1.00051 4.38282 4.70234 1 9.60083 1C14.4993 1 18.2012 4.38282 18.2012 8.25C18.2012 12.1172 14.4993 15.5 9.60083 15.5C7.99204 15.5 6.49832 15.1279 5.22221 14.4863L4.75577 14.2517L4.2967 14.5004C3.99149 14.6657 3.63404 14.8308 3.24609 14.9808C2.68781 15.1944 2.0701 15.3698 1.4529 15.4511C1.60834 15.2941 1.7875 15.0976 1.96595 14.8638C2.26446 14.4775 2.5622 14.0001 2.76715 13.4411ZM12.1175 18.7623C17.2088 17.7877 21.4676 13.8953 21.6706 8.64287C25.6878 9.33046 28.5354 12.3494 28.5354 15.7453C28.5354 17.3007 27.9556 18.7499 26.9439 19.9466L26.5671 20.3923L26.7699 20.9397C26.9736 21.4894 27.2694 21.9702 27.57 22.3592C27.7502 22.5953 27.9311 22.7934 28.0876 22.9511C27.4702 22.8698 26.8524 22.6944 26.294 22.4806C25.9091 22.3318 25.5561 22.167 25.2484 22.0004L24.79 21.7521L24.324 21.9857C23.0424 22.628 21.5482 23 19.9396 23C16.4037 23 13.4547 21.2144 12.1175 18.7623Z" fill="white" stroke="black" stroke-width="2"/>
</svg>
