<svg width="24" height="24" viewBox="0 0 24 24" fill="none" xmlns="http://www.w3.org/2000/svg">
<g clip-path="url(#clip0_213_3281)">
<path d="M11.5 15V14H10.5C5.25385 14 1 9.74615 1 4.5C1 4.2226 1.2226 4 1.5 4H3C8.24615 4 12.5 8.25385 12.5 13.5V15V22.5C12.5 22.7774 12.2774 23 12 23C11.7226 23 11.5 22.7774 11.5 22.5V15ZM23 1.5C23 5.98612 19.8884 9.74863 15.7081 10.7412C15.2663 8.69737 14.3457 6.83275 13.0693 5.2726C14.7689 2.69791 17.6872 1 21 1H22.5C22.7774 1 23 1.2226 23 1.5Z" fill="white" stroke="black" stroke-width="2"/>
</g>
<defs>
<clipPath id="clip0_213_3281">
<rect width="24" height="24" fill="white"/>
</clipPath>
</defs>
</svg>
