<svg width="22" height="22" viewBox="0 0 22 22" fill="none" xmlns="http://www.w3.org/2000/svg">
<g clip-path="url(#clip0_213_3281)">
<path d="M10.625 13.75V12.75H9.625C4.86205 12.75 1 8.88795 1 4.125C1 3.91674 1.16674 3.75 1.375 3.75H2.75C7.51295 3.75 11.375 7.61205 11.375 12.375V13.75V20.625C11.375 20.8333 11.2083 21 11 21C10.7917 21 10.625 20.8333 10.625 20.625V13.75ZM21 1.375C21 5.41837 18.2158 8.81434 14.4622 9.74502C14.0522 7.91182 13.2243 6.23725 12.0836 4.82824C13.6315 2.51904 16.2643 1 19.25 1H20.625C20.8333 1 21 1.16674 21 1.375Z" fill="white" stroke="black" stroke-width="2"/>
</g>
<defs>
<clipPath id="clip0_213_3281">
<rect width="22" height="22" fill="white"/>
</clipPath>
</defs>
</svg>
