<svg width="24" height="24" viewBox="0 0 24 24" fill="none" xmlns="http://www.w3.org/2000/svg">
<path d="M22.9986 11.8783L22.9937 11.9273V11.9766C22.9937 12.1498 22.93 12.2871 22.8509 12.3746C22.7699 12.4642 22.6955 12.4813 22.6603 12.4813H21.3268H20.3229L20.3268 13.4851L20.356 20.9906C20.356 20.9912 20.356 20.9918 20.356 20.9923C20.3559 21.0754 20.3504 21.1668 20.34 21.272L20.3351 21.321V21.3703V22.125C20.3351 22.7225 19.9296 23 19.6683 23H19.0016L18.9736 22.9999L18.9584 22.9997L18.875 22.9912L18.784 22.9985C18.7723 22.9995 18.7541 23 18.6891 23H17.3348H16.3347C16.0735 23 15.6679 22.7225 15.6679 22.125V21V18C15.6679 16.7319 14.7317 15.5 13.3345 15.5H10.6676C9.27033 15.5 8.33413 16.7319 8.33413 18V21V22.125C8.33413 22.7225 7.92855 23 7.66732 23H6.66723H5.33795C5.31917 23 5.29408 22.9986 5.22522 22.9934L5.1411 22.9871L5.05711 22.995C5.03014 22.9975 5.01674 22.9987 5.00528 22.9995C5.00137 22.9998 4.99892 22.9999 4.99771 23H4.3337C4.07247 23 3.66689 22.7225 3.66689 22.125V16.875L3.66694 16.8486L3.66714 16.8328C3.66714 16.8327 3.66714 16.8327 3.66714 16.8327L3.67106 16.793V16.7438V13.4813V12.4813H2.67106H1.33345C1.26486 12.4813 1.19737 12.4554 1.13355 12.3835C1.06634 12.3077 1 12.1719 1 11.9766C1 11.7862 1.04527 11.6582 1.14602 11.537L11.8011 1.08901L11.8256 1.06501L11.8483 1.0394C11.8653 1.02035 11.8748 1.01408 11.8757 1.01346L11.8758 1.01344L11.876 1.0133C11.8766 1.0129 11.8769 1.01269 11.8791 1.01195C11.8879 1.00897 11.9209 1 12.0177 1C12.0595 1 12.1036 1.00714 12.1413 1.02029C12.1728 1.0313 12.1924 1.04377 12.2042 1.05355L22.8322 11.5626L22.8338 11.5642C23.0041 11.7319 23.004 11.8234 22.9986 11.8783Z" fill="white" stroke="black" stroke-width="2"/>
</svg>
