<svg width="12" height="12" viewBox="0 0 12 12" fill="none" xmlns="http://www.w3.org/2000/svg">
<path fill-rule="evenodd" clip-rule="evenodd" d="M6 2C4.34315 2 3 3.34315 3 5C3 5.51394 3.18197 6.0884 3.49075 6.6839C3.79728 7.27507 4.2118 7.85459 4.63597 8.36965C5.05891 8.88322 5.48325 9.32286 5.80239 9.6344C5.87415 9.70445 5.94043 9.76787 6 9.82404C6.05957 9.76787 6.12585 9.70445 6.19761 9.6344C6.51675 9.32286 6.94109 8.88322 7.36403 8.36965C7.7882 7.85459 8.20272 7.27507 8.50925 6.6839C8.81803 6.0884 9 5.51394 9 5C9 3.34315 7.65685 2 6 2ZM6 10.5C5.6746 10.8796 5.67451 10.8796 5.67441 10.8795L5.67335 10.8786L5.67083 10.8764L5.66206 10.8688C5.65459 10.8623 5.64389 10.853 5.63018 10.8409C5.60276 10.8167 5.56328 10.7816 5.51346 10.7364C5.41386 10.6459 5.27272 10.5148 5.10386 10.35C4.76675 10.0209 4.31609 9.55428 3.86403 9.00535C3.4132 8.45791 2.95272 7.81868 2.603 7.14422C2.25553 6.4741 2 5.73606 2 5C2 2.79086 3.79086 1 6 1C8.20914 1 10 2.79086 10 5C10 5.73606 9.74447 6.4741 9.397 7.14422C9.04728 7.81868 8.5868 8.45791 8.13597 9.00535C7.68391 9.55428 7.23325 10.0209 6.89614 10.35C6.72728 10.5148 6.58614 10.6459 6.48654 10.7364C6.43672 10.7816 6.39724 10.8167 6.36982 10.8409C6.35611 10.853 6.34541 10.8623 6.33794 10.8688L6.32917 10.8764L6.32665 10.8786L6.32586 10.8792C6.32576 10.8793 6.3254 10.8796 6 10.5ZM6 10.5L5.67441 10.8795C5.86166 11.04 6.13815 11.0401 6.3254 10.8796L6 10.5ZM6 4C5.44772 4 5 4.44772 5 5C5 5.55228 5.44772 6 6 6C6.55228 6 7 5.55228 7 5C7 4.44772 6.55228 4 6 4ZM4 5C4 3.89543 4.89543 3 6 3C7.10457 3 8 3.89543 8 5C8 6.10457 7.10457 7 6 7C4.89543 7 4 6.10457 4 5Z" fill="#A0D8B3"/>
</svg>
