<svg width="21" height="24" viewBox="0 0 21 24" fill="none" xmlns="http://www.w3.org/2000/svg">
<g clip-path="url(#clip0_213_3285)">
<path d="M13.8918 9.53893C12.964 10.4756 11.7078 11 10.4 11C9.09218 11 7.83597 10.4756 6.90825 9.53893C5.98021 8.60196 5.45714 7.32915 5.45714 6C5.45714 4.67085 5.98021 3.39804 6.90825 2.46107C7.83597 1.52444 9.09218 1 10.4 1C11.7078 1 12.964 1.52444 13.8918 2.46107C14.8198 3.39804 15.3429 4.67085 15.3429 6C15.3429 7.32915 14.8198 8.60196 13.8918 9.53893ZM1 22.6078C1 18.5339 4.26629 15.25 8.27821 15.25H12.5218C16.5337 15.25 19.8 18.5339 19.8 22.6078C19.8 22.8333 19.6212 23 19.4211 23H1.37893C1.17879 23 1 22.8333 1 22.6078Z" fill="white" stroke="black" stroke-width="2"/>
</g>
<defs>
<clipPath id="clip0_213_3285">
<rect width="20.8" height="24" fill="white"/>
</clipPath>
</defs>
</svg>
