<svg width="22" height="22" viewBox="0 0 22 22" fill="none" xmlns="http://www.w3.org/2000/svg">
<g clip-path="url(#clip0_213_3285)">
<path d="M14.7862 8.63651C13.802 9.49765 12.4418 10 11 10C9.55822 10 8.19799 9.49765 7.21383 8.63651C6.23394 7.7791 5.71429 6.64711 5.71429 5.5C5.71429 4.35289 6.23394 3.2209 7.21383 2.36349C8.19799 1.50235 9.55822 1 11 1C12.4418 1 13.802 1.50235 14.7862 2.36349C15.7661 3.2209 16.2857 4.35289 16.2857 5.5C16.2857 6.64711 15.7661 7.7791 14.7862 8.63651ZM1 20.7238C1 17.1649 4.34143 14.0625 8.7558 14.0625H13.2442C17.6586 14.0625 21 17.1649 21 20.7238C21 20.7531 20.9888 20.8084 20.9143 20.8736C20.8378 20.9405 20.709 21 20.5415 21H1.45848C1.29101 21 1.16219 20.9405 1.08574 20.8736C1.01124 20.8084 1 20.7531 1 20.7238Z" fill="white" stroke="black" stroke-width="2"/>
</g>
<defs>
<clipPath id="clip0_213_3285">
<rect width="22" height="22" fill="white"/>
</clipPath>
</defs>
</svg>
