<svg width="28" height="28" viewBox="0 0 28 28" fill="none" xmlns="http://www.w3.org/2000/svg">
<path d="M4.66669 22.7502V5.25016C4.66669 4.47661 4.97398 3.73475 5.52096 3.18777C6.06794 2.64079 6.80981 2.3335 7.58335 2.3335H23.3334V25.6668H7.58335C6.80981 25.6668 6.06794 25.3595 5.52096 24.8126C4.97398 24.2656 4.66669 23.5237 4.66669 22.7502ZM4.66669 22.7502C4.66669 21.9766 4.97398 21.2347 5.52096 20.6878C6.06794 20.1408 6.80981 19.8335 7.58335 19.8335H23.3334M18.6667 9.56683C18.6667 8.16683 17.5 7.00016 16.1 7.00016C15.1667 7.00016 14.4667 7.35016 14 8.05016C13.5334 7.35016 12.8334 7.00016 11.9 7.00016C10.5 7.00016 9.33335 8.16683 9.33335 9.56683C9.33335 10.2668 9.68335 10.9668 10.15 11.4335C11.6667 12.9502 14 15.1668 14 15.1668C14 15.1668 16.3334 12.9502 17.85 11.5502C18.3167 11.0835 18.6667 10.3835 18.6667 9.56683Z" stroke="#D3D3D3" stroke-width="2" stroke-linecap="round" stroke-linejoin="round"/>
</svg>
