<svg width="47" height="64" viewBox="0 0 47 64" fill="none" xmlns="http://www.w3.org/2000/svg">
<g id="&#237;&#146;&#128;&#237;&#140;&#133;&#236;&#157;&#180;">
<line id="Line 115" x1="28.5" y1="51" x2="28.5" y2="61" stroke="#3D0C11" stroke-width="3"/>
<line id="Line 116" x1="17.5" y1="51" x2="17.5" y2="61" stroke="#3D0C11" stroke-width="3"/>
<rect id="Rectangle 108" y="13.5117" width="47" height="43.3778" rx="21.6889" fill="#A0D8B3"/>
<g id="leaf">
<path id="Vector" d="M22.3131 16.1781C22.3131 13.8669 23.8501 12.0489 26.5336 11.5558C28.5442 11.1861 30.6212 10.0151 31.452 9.24472M29.7904 15.4077C28.3315 15.4118 26.9243 14.9073 25.8478 13.9944C24.7713 13.0814 24.1041 11.8267 23.9786 10.4789C23.8532 9.13122 24.2785 7.789 25.1704 6.71848C26.0622 5.64795 27.3554 4.92733 28.7934 4.69953C33.529 3.85213 34.7752 3.45153 36.4368 1.54102C37.2676 3.08176 38.0984 4.76116 38.0984 7.70398C38.0984 11.941 34.1272 15.4077 29.7904 15.4077Z" stroke="black" stroke-width="2" stroke-linecap="round" stroke-linejoin="round"/>
</g>
<ellipse id="Ellipse 66" cx="13.5303" cy="31.8444" rx="2.84848" ry="2.84445" fill="black"/>
<ellipse id="Ellipse 67" cx="32.0454" cy="31.8444" rx="2.84848" ry="2.84445" fill="black"/>
<path id="Rectangle 112" d="M27 60H31.5C32.8807 60 34 61.1193 34 62.5C34 63.3284 33.3284 64 32.5 64H30C28.3431 64 27 62.6569 27 61V60Z" fill="#2A7F00"/>
<rect id="Rectangle 113" x="2" y="37.1328" width="9" height="3" rx="1.5" fill="#FFD9D9"/>
<rect id="Rectangle 114" x="35" y="37.1328" width="9" height="3" rx="1.5" fill="#FFD9D9"/>
<path id="Rectangle 115" d="M12 62.5C12 61.1193 13.1193 60 14.5 60H19V61C19 62.6569 17.6569 64 16 64H13.5C12.6716 64 12 63.3284 12 62.5Z" fill="#2A7F00"/>
</g>
</svg>
