<svg width="47" height="64" viewBox="0 0 47 64" fill="none" xmlns="http://www.w3.org/2000/svg">
<g id="&#237;&#146;&#128;&#237;&#131;&#177;&#236;&#157;&#180;">
<line id="Line 115" y1="-1.5" x2="10" y2="-1.5" transform="matrix(6.14691e-08 1 1 -3.10837e-08 20 51)" stroke="#3D0C11" stroke-width="3"/>
<line id="Line 116" y1="-1.5" x2="10" y2="-1.5" transform="matrix(6.14691e-08 1 1 -3.10837e-08 31 51)" stroke="#3D0C11" stroke-width="3"/>
<rect id="Rectangle 108" width="47" height="43.3778" rx="21.6889" transform="matrix(-1 0 0 1 47 13.5112)" fill="#A0D8B3"/>
<g id="leaf">
<path id="Vector" d="M24.6869 16.1776C24.6869 13.8665 23.1499 12.0484 20.4664 11.5553C18.4558 11.1856 16.3788 10.0146 15.548 9.24423M17.2096 15.4072C18.6685 15.4113 20.0757 14.9068 21.1522 13.9939C22.2287 13.0809 22.8959 11.8262 23.0214 10.4784C23.1468 9.13073 22.7215 7.78851 21.8296 6.71799C20.9378 5.64747 19.6446 4.92684 18.2066 4.69905C13.471 3.85164 12.2248 3.45105 10.5632 1.54053C9.73236 3.08127 8.90156 4.76068 8.90156 7.70349C8.90156 11.9405 12.8728 15.4072 17.2096 15.4072Z" stroke="black" stroke-width="2" stroke-linecap="round" stroke-linejoin="round"/>
</g>
<ellipse id="Ellipse 66" cx="2.84848" cy="2.84445" rx="2.84848" ry="2.84445" transform="matrix(-1 0 0 1 36.3182 29.8667)" fill="black"/>
<ellipse id="Ellipse 67" cx="2.84848" cy="2.84445" rx="2.84848" ry="2.84445" transform="matrix(-1 0 0 1 17.803 29.8667)" fill="black"/>
<path id="Rectangle 112" d="M20 60H15.5C14.1193 60 13 61.1193 13 62.5C13 63.3284 13.6716 64 14.5 64H17C18.6569 64 20 62.6569 20 61V60Z" fill="#2A7F00"/>
<rect id="Rectangle 113" width="9" height="3" rx="1.5" transform="matrix(-1 0 0 1 40 25)" fill="black"/>
<rect id="Rectangle 114" width="9" height="3" rx="1.5" transform="matrix(-1 0 0 1 18 25)" fill="black"/>
<path id="Rectangle 115" d="M35 62.5C35 61.1193 33.8807 60 32.5 60H28V61C28 62.6569 29.3431 64 31 64H33.5C34.3284 64 35 63.3284 35 62.5Z" fill="#2A7F00"/>
</g>
</svg>
