<svg width="15" height="14" viewBox="0 0 15 14" fill="none" xmlns="http://www.w3.org/2000/svg">
<g id="Speech Bubble">
<path id="Vector" d="M7.49999 0.25C10.9462 0.25 13.75 3.05384 13.75 6.5C13.75 7.52354 13.4804 8.47964 13.0432 9.33264L13.7207 11.7588C13.8785 12.3224 13.3213 12.8789 12.7576 12.7213L10.3302 12.0438C9.47779 12.4804 8.52282 12.75 7.49999 12.75C4.05383 12.75 1.24999 9.94616 1.24999 6.5C1.24999 3.05384 4.05383 0.25 7.49999 0.25ZM7.49999 1.1875C4.56053 1.1875 2.18749 3.56053 2.18749 6.5C2.18749 9.43947 4.56053 11.8125 7.49999 11.8125C8.43842 11.8125 9.31491 11.5682 10.0799 11.1417C10.188 11.0815 10.3154 11.0663 10.4346 11.0996L12.7429 11.7441L12.0984 9.43701C12.0651 9.31788 12.0802 9.19042 12.1405 9.0824C12.5676 8.31671 12.8125 7.43891 12.8125 6.5C12.8125 3.56053 10.4395 1.1875 7.49999 1.1875Z" fill="#C8C8C8"/>
</g>
</svg>
