<svg width="14" height="17" viewBox="0 0 14 17" fill="none" xmlns="http://www.w3.org/2000/svg">
<path id="Vector" d="M6.66667 0C2.225 3.79167 0 7.06667 0 9.83333C0 13.9833 3.16667 16.6667 6.66667 16.6667C10.1667 16.6667 13.3333 13.9833 13.3333 9.83333C13.3333 7.06667 11.1083 3.79167 6.66667 0ZM6.66667 15C3.875 15 1.66667 12.8583 1.66667 9.83333C1.66667 7.88333 3.29167 5.3 6.66667 2.21667C10.0417 5.3 11.6667 7.875 11.6667 9.83333C11.6667 12.8583 9.45833 15 6.66667 15ZM3.19167 10C3.5 10 3.75 10.2167 3.80833 10.5167C4.15 12.3667 5.70833 13 6.84167 12.9083C7.2 12.8917 7.5 13.175 7.5 13.5333C7.5 13.8667 7.23333 14.1417 6.9 14.1583C5.125 14.2667 3.05 13.25 2.575 10.725C2.50833 10.35 2.80833 10 3.19167 10Z" fill="black"/>
</svg>
